<svg width="38" height="37" viewBox="0 0 38 37" fill="none" xmlns="http://www.w3.org/2000/svg">
<path d="M15.9392 1.66551C17.6939 0.137553 20.3066 0.137553 22.0613 1.66551C23.0869 2.55857 24.4514 2.95921 25.797 2.7624C28.0992 2.42567 30.2972 3.83821 30.9473 6.07227C31.3272 7.37805 32.2585 8.45277 33.4969 9.01469C35.6157 9.97609 36.701 12.3527 36.0401 14.5836C35.6538 15.8875 35.8562 17.2951 36.5942 18.4373C37.8569 20.3916 37.485 22.9778 35.7229 24.4972C34.693 25.3852 34.1022 26.6788 34.1055 28.0387C34.1112 30.3654 32.4002 32.34 30.0964 32.6655C28.7498 32.8558 27.5535 33.6246 26.8211 34.7704C25.5679 36.7308 23.061 37.4669 20.9469 36.4952C19.7113 35.9273 18.2892 35.9273 17.0536 36.4952C14.9395 37.4669 12.4326 36.7308 11.1794 34.7704C10.447 33.6246 9.25065 32.8558 7.9041 32.6655C5.60026 32.34 3.88929 30.3654 3.89495 28.0387C3.89827 26.6788 3.30752 25.3852 2.27759 24.4972C0.515463 22.9778 0.143633 20.3916 1.40632 18.4373C2.14433 17.2951 2.34671 15.8875 1.9604 14.5836C1.29945 12.3527 2.38482 9.97609 4.50363 9.01469C5.74203 8.45277 6.67329 7.37805 7.05325 6.07227C7.70332 3.83821 9.90129 2.42566 12.2035 2.7624C13.5491 2.95921 14.9136 2.55857 15.9392 1.66551Z" fill="#FD4D35"/>
</svg>
